<svg width="220" height="161" viewBox="0 0 220 161" fill="none" xmlns="http://www.w3.org/2000/svg">
<g clip-path="url(#clip0_833_6179)">
<path d="M19.5714 54.0001H-1V107.999H19.5714V54.0001Z" fill="#CECECE"/>
<path d="M19.5806 108H41.1904V77.3995L19.5806 108Z" fill="#CECECE"/>
<path d="M75.5504 79.2463L65.6436 93.282H54.0061C54.0809 93.0668 64.259 78.6723 69.6942 70.9325L57.72 54L44.6231 72.5379V107.999H95.8598L76.0181 79.91L75.5504 79.2463Z" fill="#CECECE"/>
<path d="M130.351 54.0001H84.0914V76.0627H95.8598L95.8598 107.999L118.592 76.0627H130.351V54.0001Z" fill="#CECECE"/>
<path d="M220 54.0001H173.74V76.0627H185.499V107.999L208.232 76.0627H220V54.0001Z" fill="#CECECE"/>
<path d="M165.807 79.9101L165.367 79.2913L155.554 93.1566H143.917C143.991 92.9414 154.104 78.6904 159.549 70.9506L159.371 70.6995L145.947 54.0001L107.807 107.999H185.649L165.807 79.9101Z" fill="#CECECE"/>
<path d="M37.2063 93.3539H3.82803V107.999H37.2063V93.3539Z" fill="#CECECE"/>
</g>
<defs>
<clipPath id="clip0_833_6179">
<rect width="220" height="160" fill="white" transform="translate(0 0.761475)"/>
</clipPath>
</defs>
</svg>
