<svg width="221" height="42" viewBox="0 0 221 42" fill="none" xmlns="http://www.w3.org/2000/svg">
<path d="M77.6035 14.8859H67.5168L65.0737 26.5623H59.6846L65.1456 0.514829H70.5347L68.424 10.5386H78.5106L80.6214 0.460938H86.0105L80.5675 26.5084H75.1783L77.6035 14.8859Z" fill="white"/>
<path d="M77.6035 14.8859H67.5168L65.0737 26.5623H59.6846L65.1456 0.514829H70.5347L68.424 10.5386H78.5106L80.6214 0.460938H86.0105L80.5675 26.5084H75.1783L77.6035 14.8859Z" fill="white"/>
<path d="M92.1092 0.460938H112.768L107.226 26.5084H101.837L106.534 4.81716H96.5013L91.8577 26.5444H86.5225L92.1092 0.460938Z" fill="white"/>
<path d="M92.1092 0.460938H112.768L107.226 26.5084H101.837L106.534 4.81716H96.5013L91.8577 26.5444H86.5225L92.1092 0.460938Z" fill="white"/>
<path d="M118.804 0.46006H124.121L121.804 11.5258C122.635 11.5742 123.46 11.3538 124.157 10.897C125.201 9.80958 126.076 8.57119 126.753 7.22343C127.605 5.65953 128.569 4.1587 129.636 2.73248C130.245 1.95961 131.03 1.34368 131.926 0.936101C133.173 0.507551 134.49 0.321573 135.806 0.388205H137.234L136.058 4.30431H135.16C134.638 4.27589 134.118 4.38426 133.651 4.61868C133.135 5.04155 132.725 5.58003 132.456 6.19051C131.526 8.05973 130.391 9.81914 129.07 11.4359C128.344 12.2972 127.378 12.9227 126.294 13.2323C128.091 13.7982 129.258 15.37 129.887 17.9298C129.887 18.0736 129.959 18.2083 129.986 18.343L132.339 26.5435H126.824L124.633 18.4598C124.633 18.37 124.399 17.8041 124.013 16.7532C123.627 15.7023 122.54 15.2353 121.004 15.2083L118.57 26.5435H113.262L118.804 0.46006Z" fill="white"/>
<path d="M118.804 0.46006H124.121L121.804 11.5258C122.635 11.5742 123.46 11.3538 124.157 10.897C125.201 9.80958 126.076 8.57119 126.753 7.22343C127.605 5.65953 128.569 4.1587 129.636 2.73248C130.245 1.95961 131.03 1.34368 131.926 0.936101C133.173 0.507551 134.49 0.321573 135.806 0.388205H137.234L136.058 4.30431H135.16C134.638 4.27589 134.118 4.38426 133.651 4.61868C133.135 5.04155 132.725 5.58003 132.456 6.19051C131.526 8.05973 130.391 9.81914 129.07 11.4359C128.344 12.2972 127.378 12.9227 126.294 13.2323C128.091 13.7982 129.258 15.37 129.887 17.9298C129.887 18.0736 129.959 18.2083 129.986 18.343L132.339 26.5435H126.824L124.633 18.4598C124.633 18.37 124.399 17.8041 124.013 16.7532C123.627 15.7023 122.54 15.2353 121.004 15.2083L118.57 26.5435H113.262L118.804 0.46006Z" fill="white"/>
<path d="M158.018 11.3471H166.21C166.21 9.01184 165.647 7.30528 164.521 6.22746C164.013 5.71042 163.406 5.30027 162.736 5.02108C162.067 4.7419 161.348 4.59933 160.623 4.60173C159.257 4.53919 157.913 4.96593 156.833 5.80531C155.881 6.55799 155.198 7.59742 154.884 8.76933L149.701 7.6466C150.223 5.4435 151.557 3.51871 153.438 2.25746C155.555 0.739037 158.108 -0.0491466 160.713 0.0119843C162.158 -0.055873 163.602 0.164942 164.961 0.661526C166.319 1.15811 167.565 1.9205 168.626 2.90416C170.608 4.83826 171.599 7.66456 171.599 11.3831C171.685 15.3851 170.334 19.2854 167.791 22.3769C165.252 25.4487 161.782 26.9846 157.381 26.9846C152.123 26.9846 148.944 24.3409 147.842 19.0536L152.899 17.3291C153.15 19.341 153.797 20.7063 154.803 21.4158C155.729 22.1016 156.848 22.4758 158 22.4847C159.591 22.4404 161.118 21.8542 162.33 20.823C163.893 19.4755 165.009 17.6832 165.527 15.6854H157.273L158.018 11.3471Z" fill="white"/>
<path d="M158.018 11.3471H166.21C166.21 9.01184 165.647 7.30528 164.521 6.22746C164.013 5.71042 163.406 5.30027 162.736 5.02108C162.067 4.7419 161.348 4.59933 160.623 4.60173C159.257 4.53919 157.913 4.96593 156.833 5.80531C155.881 6.55799 155.198 7.59742 154.884 8.76933L149.701 7.6466C150.223 5.4435 151.557 3.51871 153.438 2.25746C155.555 0.739037 158.108 -0.0491466 160.713 0.0119843C162.158 -0.055873 163.602 0.164942 164.961 0.661526C166.319 1.15811 167.565 1.9205 168.626 2.90416C170.608 4.83826 171.599 7.66456 171.599 11.3831C171.685 15.3851 170.334 19.2854 167.791 22.3769C165.252 25.4487 161.782 26.9846 157.381 26.9846C152.123 26.9846 148.944 24.3409 147.842 19.0536L152.899 17.3291C153.15 19.341 153.797 20.7063 154.803 21.4158C155.729 22.1016 156.848 22.4758 158 22.4847C159.591 22.4404 161.118 21.8542 162.33 20.823C163.893 19.4755 165.009 17.6832 165.527 15.6854H157.273L158.018 11.3471Z" fill="white"/>
<path d="M184.722 26.5444H179.333L183.887 4.81716H176.234L177.133 0.460938H197.683L196.785 4.81716H189.24L184.722 26.5444Z" fill="white"/>
<path d="M184.722 26.5444H179.333L183.887 4.81716H176.234L177.133 0.460938H197.683L196.785 4.81716H189.24L184.722 26.5444Z" fill="white"/>
<path d="M207.482 26.5444H202.093L206.647 4.81716H199.048L199.946 0.460938H220.497L219.598 4.81716H212.054L207.482 26.5444Z" fill="white"/>
<path d="M207.482 26.5444H202.093L206.647 4.81716H199.048L199.946 0.460938H220.497L219.598 4.81716H212.054L207.482 26.5444Z" fill="white"/>
<path fill-rule="evenodd" clip-rule="evenodd" d="M55.4722 2.30301L55.3195 0.470703H19.2302L0 19.9255L18.3859 39.4611L55.2387 39.2276L51.574 35.3384H22.2032L4.50891 19.9255L19.4548 1.53955L55.4722 2.30301Z" fill="white"/>
<path fill-rule="evenodd" clip-rule="evenodd" d="M55.4722 2.30301L55.3195 0.470703H19.2302L0 19.9255L18.3859 39.4611L55.2387 39.2276L51.574 35.3384H22.2032L4.50891 19.9255L19.4548 1.53955L55.4722 2.30301Z" fill="white"/>
<path fill-rule="evenodd" clip-rule="evenodd" d="M50.6403 6.74031L50.6223 5.59961H23.8024L9.76367 19.8449L22.8144 34.1531L50.0475 33.9824L47.0026 30.0932L25.5628 29.9944L14.2636 19.8449L24.2425 6.66846L50.6403 6.74031Z" fill="white"/>
<path fill-rule="evenodd" clip-rule="evenodd" d="M50.6403 6.74031L50.6223 5.59961H23.8024L9.76367 19.8449L22.8144 34.1531L50.0475 33.9824L47.0026 30.0932L25.5628 29.9944L14.2636 19.8449L24.2425 6.66846L50.6403 6.74031Z" fill="white"/>
<path fill-rule="evenodd" clip-rule="evenodd" d="M46.4546 11.4813L46.4007 10.1699H28.1225L19.2305 19.7267L26.5956 28.6547L45.1522 28.6367L41.9367 25.6906L30.1345 25.7894L23.4789 20.2566L29.4788 11.5531L46.4546 11.4813Z" fill="white"/>
<path fill-rule="evenodd" clip-rule="evenodd" d="M46.4546 11.4813L46.4007 10.1699H28.1225L19.2305 19.7267L26.5956 28.6547L45.1522 28.6367L41.9367 25.6906L30.1345 25.7894L23.4789 20.2566L29.4788 11.5531L46.4546 11.4813Z" fill="white"/>
<path fill-rule="evenodd" clip-rule="evenodd" d="M40.4905 16.1611L40.5264 15.2539L33.1972 15.2988L28.7871 19.8796L32.4517 24.7478L40.5893 24.7388L37.9037 20.7868L32.3529 19.9155L34.7691 16.188L40.4905 16.1611Z" fill="white"/>
<path fill-rule="evenodd" clip-rule="evenodd" d="M40.4905 16.1611L40.5264 15.2539L33.1972 15.2988L28.7871 19.8796L32.4517 24.7478L40.5893 24.7388L37.9037 20.7868L32.3529 19.9155L34.7691 16.188L40.4905 16.1611Z" fill="white"/>
<path fill-rule="evenodd" clip-rule="evenodd" d="M40.4905 16.1611L40.5264 15.2539L33.1972 15.2988L28.7871 19.8796L32.4517 24.7478L40.5893 24.7388L37.9037 20.7868L32.3529 19.9155L34.7691 16.188L40.4905 16.1611Z" fill="white"/>
<path d="M40.4905 16.1611L40.5264 15.2539L33.1972 15.2988L28.7871 19.8796L32.4517 24.7478L40.5893 24.7388L37.9037 20.7868L32.3529 19.9155L34.7691 16.188L40.4905 16.1611Z" fill="white"/>
<path fill-rule="evenodd" clip-rule="evenodd" d="M46.4546 11.4813L46.4007 10.1699H28.1225L19.2305 19.7267L26.5956 28.6547L45.1522 28.6367L41.9367 25.6906L30.1345 25.7894L23.4789 20.2566L29.4788 11.5531L46.4546 11.4813Z" fill="white"/>
<path d="M46.4546 11.4813L46.4007 10.1699H28.1225L19.2305 19.7267L26.5956 28.6547L45.1522 28.6367L41.9367 25.6906L30.1345 25.7894L23.4789 20.2566L29.4788 11.5531L46.4546 11.4813Z" fill="white"/>
<path fill-rule="evenodd" clip-rule="evenodd" d="M50.6403 6.74031L50.6223 5.59961H23.8024L9.76367 19.8449L22.8144 34.1531L50.0475 33.9824L47.0026 30.0932L25.5628 29.9944L14.2636 19.8449L24.2425 6.66846L50.6403 6.74031Z" fill="white"/>
<path d="M50.6403 6.74031L50.6223 5.59961H23.8024L9.76367 19.8449L22.8144 34.1531L50.0475 33.9824L47.0026 30.0932L25.5628 29.9944L14.2636 19.8449L24.2425 6.66846L50.6403 6.74031Z" fill="white"/>
<path fill-rule="evenodd" clip-rule="evenodd" d="M55.4722 2.30301L55.3195 0.470703H19.2302L0 19.9255L18.3859 39.4611L55.2387 39.2276L51.574 35.3384H22.2032L4.50891 19.9255L19.4548 1.53955L55.4722 2.30301Z" fill="white"/>
<path d="M55.4722 2.30301L55.3195 0.470703H19.2302L0 19.9255L18.3859 39.4611L55.2387 39.2276L51.574 35.3384H22.2032L4.50891 19.9255L19.4548 1.53955L55.4722 2.30301Z" fill="white"/>
<path d="M130.336 39.3892L131.98 31.7815H134.674C135.082 31.7726 135.49 31.7906 135.896 31.8354C136.24 31.8731 136.573 31.9801 136.875 32.1498C137.133 32.2944 137.345 32.5093 137.486 32.7695C137.629 33.0467 137.7 33.3557 137.692 33.6677C137.704 34.0652 137.573 34.4537 137.324 34.7635C137.034 35.1104 136.64 35.3558 136.201 35.4641C136.57 35.5541 136.902 35.7547 137.153 36.0389C137.363 36.2915 137.481 36.6085 137.486 36.9371C137.482 37.4003 137.345 37.8526 137.09 38.2395C136.826 38.6514 136.435 38.9666 135.977 39.1377C135.354 39.3406 134.7 39.4318 134.045 39.4071L130.336 39.3892ZM132.213 38.1676H133.767C134.208 38.1904 134.65 38.148 135.078 38.0419C135.293 37.9664 135.481 37.8289 135.617 37.6467C135.745 37.4754 135.814 37.2676 135.815 37.0539C135.819 36.934 135.795 36.8147 135.745 36.7056C135.696 36.5964 135.621 36.5004 135.527 36.4252C135.244 36.2371 134.905 36.1515 134.566 36.1826H132.635L132.213 38.1676ZM132.923 34.8533H134.153C134.554 34.8692 134.956 34.833 135.348 34.7455C135.566 34.6807 135.757 34.5487 135.896 34.3683C136.011 34.2053 136.074 34.011 136.075 33.8114C136.082 33.6366 136.021 33.4659 135.905 33.3354C135.773 33.2032 135.604 33.1153 135.42 33.0839C135.135 33.0684 134.851 33.0684 134.566 33.0839H133.318L132.923 34.8533Z" fill="white"/>
<path d="M142.156 35.0237L142.444 33.6944C143.585 33.2475 144.629 32.5824 145.515 31.7363H146.414L144.761 39.3889H143.216L144.357 34.1165C144.005 34.3364 143.632 34.52 143.243 34.6644C142.891 34.814 142.528 34.9342 142.156 35.0237Z" fill="white"/>
<path d="M147.644 37.636L149.081 37.5192C149.08 37.7486 149.16 37.9711 149.306 38.1479C149.369 38.211 149.445 38.2598 149.529 38.2908C149.612 38.3218 149.702 38.3343 149.791 38.3276C149.92 38.3267 150.048 38.3001 150.167 38.2492C150.285 38.1983 150.393 38.1241 150.482 38.0312C150.828 37.6371 151.066 37.1607 151.174 36.648C150.86 36.8476 150.495 36.9535 150.123 36.9533C149.845 36.9622 149.568 36.9133 149.31 36.8097C149.052 36.7061 148.818 36.5501 148.623 36.3516C148.422 36.1315 148.267 35.8736 148.167 35.5929C148.067 35.3122 148.023 35.0144 148.039 34.7168C148.033 33.9597 148.301 33.2259 148.794 32.651C149.036 32.357 149.343 32.123 149.69 31.9672C150.038 31.8114 150.416 31.738 150.797 31.7528C151.118 31.7357 151.439 31.797 151.732 31.9316C152.025 32.0661 152.28 32.2699 152.476 32.5253C152.898 33.1453 153.103 33.8873 153.06 34.636C153.114 35.8554 152.801 37.0629 152.162 38.103C151.909 38.5436 151.542 38.9079 151.099 39.1576C150.657 39.4073 150.155 39.5332 149.647 39.5222C149.387 39.5434 149.126 39.5102 148.88 39.4249C148.633 39.3395 148.408 39.2038 148.217 39.0264C148.026 38.8489 147.874 38.6336 147.771 38.3943C147.667 38.1549 147.615 37.8966 147.617 37.636H147.644ZM151.587 34.1151C151.619 33.7947 151.529 33.4742 151.336 33.2169C151.262 33.1264 151.169 33.0536 151.063 33.0038C150.957 32.9541 150.842 32.9287 150.725 32.9295C150.575 32.9319 150.427 32.9697 150.295 33.04C150.162 33.1102 150.048 33.2108 149.962 33.3336C149.653 33.7575 149.498 34.2738 149.521 34.7977C149.492 35.1165 149.578 35.4351 149.764 35.6959C149.835 35.7844 149.925 35.8554 150.028 35.9037C150.131 35.9519 150.243 35.9761 150.357 35.9743C150.572 35.9679 150.78 35.8923 150.95 35.7588C151.172 35.5814 151.335 35.34 151.417 35.0671C151.53 34.7627 151.588 34.4401 151.587 34.1151Z" fill="white"/>
<path d="M153.734 37.6379L155.18 37.5211C155.181 37.7487 155.257 37.9698 155.396 38.1499C155.46 38.2116 155.536 38.2594 155.62 38.2903C155.703 38.3212 155.792 38.3346 155.881 38.3295C156.01 38.3297 156.138 38.3035 156.257 38.2525C156.376 38.2016 156.484 38.1269 156.573 38.0331C156.922 37.6414 157.16 37.164 157.264 36.6499C156.954 36.8497 156.592 36.9557 156.222 36.9553C155.944 36.9652 155.667 36.9168 155.409 36.8132C155.15 36.7095 154.917 36.5529 154.722 36.3535C154.518 36.1353 154.36 35.8779 154.258 35.5969C154.157 35.3159 154.113 35.0172 154.13 34.7188C154.123 33.9617 154.391 33.2278 154.884 32.653C155.127 32.36 155.434 32.1267 155.781 31.971C156.128 31.8153 156.507 31.7413 156.887 31.7548C157.21 31.7376 157.532 31.799 157.826 31.9335C158.12 32.068 158.377 32.2717 158.576 32.5272C158.993 33.1492 159.198 33.8898 159.159 34.638C159.208 35.8569 158.896 37.0631 158.261 38.105C158.011 38.5363 157.652 38.8944 157.22 39.1434C156.788 39.3924 156.299 39.5237 155.8 39.5241C155.277 39.5478 154.765 39.3675 154.372 39.0211C154.18 38.8439 154.025 38.6305 153.915 38.3931C153.806 38.1557 153.744 37.8991 153.734 37.6379ZM157.677 34.117C157.707 33.7982 157.621 33.4796 157.435 33.2188C157.356 33.1409 157.262 33.0806 157.158 33.0418C157.054 33.0031 156.944 32.9869 156.833 32.9943C156.682 32.9967 156.533 33.0345 156.399 33.1047C156.265 33.1749 156.149 33.2755 156.061 33.3984C155.755 33.8235 155.603 34.3397 155.63 34.8625C155.6 35.1813 155.686 35.4999 155.872 35.7607C155.941 35.849 156.03 35.9201 156.131 35.9684C156.233 36.0167 156.344 36.0409 156.456 36.0391C156.671 36.0327 156.879 35.9571 157.049 35.8236C157.274 35.6471 157.44 35.4057 157.525 35.132C157.636 34.8054 157.687 34.4617 157.677 34.117Z" fill="white"/>
<path d="M160.426 35.0237L160.713 33.6944C161.857 33.2519 162.901 32.5863 163.785 31.7363H164.683L163.12 39.3889H161.575L162.716 34.1165C162.364 34.3364 161.991 34.52 161.602 34.6644C161.222 34.8203 160.828 34.9406 160.426 35.0237Z" fill="white"/>
<path d="M170.431 31.7812H176.189L175.928 33.0567H171.761L170.36 39.344H168.761L170.431 31.7812Z" fill="white"/>
<path d="M175.812 36.4058C175.842 35.2726 176.204 34.1732 176.853 33.2442C177.228 32.7524 177.711 32.353 178.264 32.0765C178.869 31.7877 179.533 31.6432 180.204 31.6544C180.636 31.639 181.067 31.7106 181.471 31.8649C181.876 32.0192 182.245 32.253 182.557 32.5526C182.857 32.8586 183.092 33.2228 183.247 33.6229C183.401 34.0229 183.472 34.4504 183.455 34.8789C183.456 35.6935 183.255 36.4957 182.871 37.2142C182.522 37.9311 181.974 38.5324 181.292 38.9464C180.611 39.3605 179.824 39.5698 179.027 39.5495C178.394 39.5631 177.771 39.3948 177.231 39.0644C176.768 38.7811 176.402 38.3647 176.18 37.8699C175.955 37.4134 175.829 36.9144 175.812 36.4058ZM177.41 36.4058C177.397 36.8908 177.574 37.3617 177.904 37.7172C178.069 37.8932 178.27 38.0316 178.493 38.1231C178.716 38.2145 178.957 38.2568 179.198 38.2471C179.648 38.2402 180.084 38.0925 180.446 37.8249C180.887 37.501 181.232 37.0632 181.443 36.5585C181.694 36.043 181.829 35.4789 181.838 34.9058C181.853 34.6498 181.817 34.3933 181.733 34.1513C181.648 33.9092 181.516 33.6864 181.344 33.4957C181.179 33.3261 180.98 33.193 180.761 33.1048C180.541 33.0167 180.305 32.9754 180.069 32.9837C179.684 32.9838 179.306 33.082 178.969 33.269C178.633 33.456 178.35 33.7257 178.147 34.0525C177.669 34.7341 177.411 35.5462 177.41 36.3789V36.4058Z" fill="white"/>
<path d="M186.033 31.7812H191.521L190.129 38.1225H190.82L190.066 41.4907H188.763L189.231 39.3889H184.183L183.716 41.4907H182.404L183.159 38.1225H183.859C184.938 36.147 185.672 34.0028 186.033 31.7812ZM189.626 33.0567H187.371C186.992 34.8152 186.388 36.5177 185.575 38.1225H188.557L189.626 33.0567Z" fill="white"/>
<path d="M192.563 31.7812H194.36L195.374 35.6884L198.069 31.8082H199.865L195.06 38.2123C194.78 38.6281 194.427 38.9902 194.018 39.2811C193.711 39.4526 193.364 39.5394 193.012 39.5326C192.667 39.5431 192.322 39.5038 191.988 39.4159L192.186 38.2123C192.39 38.2542 192.597 38.2782 192.806 38.2841C193.027 38.2782 193.245 38.2357 193.452 38.1584C193.686 38.0865 193.964 37.7722 194.351 37.2602L192.563 31.7812Z" fill="white"/>
<path d="M64.4727 36.4428C64.479 35.9598 64.5484 35.4797 64.6792 35.0147C64.833 34.3913 65.1043 33.803 65.4786 33.2812C65.8462 32.7716 66.3332 32.3602 66.8971 32.083C67.4609 31.8057 68.0842 31.6713 68.7121 31.6914C69.131 31.6768 69.5483 31.749 69.9378 31.9036C70.3274 32.0582 70.6807 32.2918 70.9756 32.5896C71.2747 32.8965 71.5086 33.2609 71.6629 33.6608C71.8173 34.0606 71.889 34.4876 71.8737 34.9159C71.8751 35.7245 71.6842 36.5219 71.3169 37.2422C70.9782 37.9503 70.4496 38.5504 69.7899 38.9757C69.1357 39.3838 68.3783 39.5957 67.6073 39.5865C66.9729 39.6133 66.3457 39.4439 65.811 39.1015C65.3617 38.8127 65.0085 38.3969 64.796 37.9069C64.5865 37.4471 64.4763 36.9482 64.4727 36.4428ZM66.0175 36.4428C66.0012 36.9234 66.1682 37.3922 66.4846 37.7542C66.6421 37.9298 66.8366 38.0684 67.054 38.1601C67.2714 38.2517 67.5064 38.2941 67.7421 38.2841C68.1772 38.279 68.5991 38.1341 68.9456 37.871C69.3754 37.5367 69.7073 37.0931 69.9067 36.5866C70.1479 36.0685 70.2764 35.5052 70.2839 34.9339C70.3171 34.4195 70.146 33.9128 69.8079 33.5237C69.654 33.3533 69.4653 33.2178 69.2546 33.1264C69.0439 33.035 68.816 32.9897 68.5864 32.9938C68.2103 32.9951 67.8411 33.0944 67.5151 33.2818C67.1891 33.4692 66.9175 33.7383 66.7271 34.0626C66.2581 34.7539 66.0106 35.5716 66.0175 36.4069V36.4428Z" fill="white"/>
<path d="M77.6934 36.686L79.2563 36.9195C79.0064 37.6984 78.5275 38.3839 77.8821 38.8866C77.2564 39.3405 76.4992 39.5771 75.7264 39.5602C75.3261 39.5837 74.9254 39.5204 74.5518 39.3746C74.1782 39.2289 73.8405 39.0042 73.5618 38.7159C72.9917 38.0382 72.7082 37.1651 72.7714 36.2818C72.7625 35.4553 72.9438 34.6379 73.3013 33.8926C73.618 33.2161 74.1232 32.6454 74.7564 32.2489C75.3639 31.8752 76.064 31.6792 76.7773 31.6831C77.4973 31.6483 78.2047 31.8819 78.7623 32.3388C79.282 32.7994 79.6038 33.443 79.6605 34.1351L78.1695 34.2789C78.1231 33.9123 77.9518 33.5729 77.6845 33.3178C77.4281 33.1185 77.1109 33.0138 76.7863 33.0214C76.3532 33.0214 75.9315 33.1598 75.5827 33.4166C75.1681 33.7289 74.8556 34.1571 74.6845 34.6471C74.4651 35.1771 74.3492 35.7442 74.3432 36.3177C74.3085 36.8263 74.4655 37.3294 74.7833 37.7279C74.9148 37.8883 75.0808 38.0169 75.269 38.104C75.4573 38.1911 75.6628 38.2345 75.8701 38.2309C76.2722 38.2265 76.6612 38.0874 76.9749 37.8357C77.3196 37.5292 77.569 37.1302 77.6934 36.686Z" fill="white"/>
<path d="M85.0587 36.0199H82.1396L81.43 39.4241H79.8672L81.457 31.8164H83.0109L82.4001 34.7894H85.3282L85.939 31.8523H87.4928L85.8761 39.4241H84.3581L85.0587 36.0199Z" fill="white"/>
<path d="M87.9688 36.4434C87.9763 35.9611 88.0426 35.4815 88.1664 35.0153C88.3269 34.3927 88.6009 33.805 88.9747 33.2818C89.3374 32.7811 89.8148 32.3745 90.3669 32.0962C90.9459 31.8051 91.5873 31.6602 92.2352 31.674C92.6555 31.6582 93.0745 31.7298 93.4657 31.8844C93.8569 32.039 94.2117 32.2733 94.5076 32.5722C94.8067 32.8791 95.0406 33.2435 95.195 33.6434C95.3494 34.0432 95.4211 34.4702 95.4058 34.8985C95.4028 35.7066 95.2121 36.503 94.8489 37.2249C94.5097 37.9354 93.9775 38.5361 93.313 38.9584C92.6596 39.3683 91.9016 39.5804 91.1304 39.5691C90.4959 39.5965 89.8685 39.4271 89.334 39.0841C88.8814 38.7966 88.5249 38.3807 88.3101 37.8895C88.0999 37.4354 87.9838 36.9435 87.9688 36.4434ZM89.5047 36.4434C89.4908 36.9252 89.661 37.3941 89.9807 37.7548C90.1364 37.9302 90.3293 38.0688 90.5452 38.1604C90.7612 38.2521 90.9948 38.2946 91.2292 38.2847C91.6673 38.2808 92.0924 38.136 92.4417 37.8715C92.8715 37.5373 93.2034 37.0937 93.4028 36.5871C93.6439 36.0691 93.7725 35.5058 93.78 34.9345C93.8084 34.4207 93.6379 33.9158 93.304 33.5243C93.1484 33.3571 92.959 33.225 92.7484 33.1367C92.5378 33.0484 92.3108 33.006 92.0825 33.0123C91.7064 33.0137 91.3372 33.1129 91.0112 33.3003C90.6851 33.4878 90.4136 33.7569 90.2232 34.0812C89.7422 34.7625 89.4791 35.5736 89.4687 36.4075L89.5047 36.4434Z" fill="white"/>
<path d="M95.6934 39.4244L97.2742 31.8167H99.861C100.254 31.8077 100.647 31.8257 101.038 31.8706C101.373 31.9052 101.697 32.0092 101.99 32.176C102.237 32.3299 102.438 32.5469 102.573 32.8047C102.717 33.0819 102.788 33.3909 102.78 33.7029C102.784 34.0977 102.658 34.4829 102.421 34.7987C102.14 35.1356 101.765 35.3798 101.343 35.4993C101.697 35.5877 102.013 35.7896 102.241 36.0741C102.448 36.3285 102.565 36.6444 102.573 36.9723C102.569 37.4312 102.435 37.8794 102.187 38.2657C101.938 38.6732 101.563 38.9885 101.118 39.1639C100.517 39.3662 99.8841 39.4575 99.2502 39.4334L95.6934 39.4244ZM97.4897 38.2029H98.9897C99.4158 38.225 99.8428 38.1826 100.256 38.0771C100.467 37.9985 100.649 37.8575 100.777 37.6729C100.898 37.4989 100.964 37.2922 100.966 37.0801C100.97 36.9624 100.947 36.8454 100.898 36.738C100.85 36.6306 100.778 36.5356 100.687 36.4604C100.427 36.273 100.109 36.1839 99.7891 36.2089H97.9298L97.4897 38.2029ZM98.1724 34.8885H99.349C99.7359 34.9074 100.123 34.868 100.499 34.7718C100.715 34.7189 100.904 34.5877 101.029 34.4035C101.143 34.24 101.205 34.046 101.208 33.8466C101.213 33.7599 101.2 33.6732 101.171 33.5915C101.141 33.5098 101.096 33.4347 101.038 33.3706C100.914 33.2372 100.75 33.1487 100.571 33.1191C100.298 33.1018 100.025 33.1018 99.7532 33.1191H98.5406L98.1724 34.8885Z" fill="white"/>
<path d="M107.89 37.7445H104.891L103.992 39.4241H102.394L106.669 31.8164H108.402L109.624 39.4241H108.151L107.89 37.7445ZM107.702 36.478L107.262 33.4152L105.465 36.478H107.702Z" fill="white"/>
<path d="M115.786 36.0199H112.822L112.121 39.4241H110.559L112.148 31.8164H113.72L113.127 34.7894H116.056L116.666 31.8523H118.211L116.63 39.46H115.076L115.786 36.0199Z" fill="white"/>
<path d="M118.695 36.4428C118.698 35.9601 118.765 35.48 118.893 35.0146C119.053 34.392 119.328 33.8043 119.701 33.2811C120.056 32.7913 120.52 32.3914 121.058 32.1135C121.636 31.8217 122.278 31.6767 122.926 31.6913C123.346 31.6766 123.765 31.7487 124.156 31.9033C124.547 32.0578 124.902 32.2914 125.198 32.5895C125.497 32.8964 125.731 33.2608 125.886 33.6607C126.04 34.0605 126.112 34.4875 126.096 34.9158C126.093 35.7239 125.903 36.5203 125.54 37.2422C125.2 37.9527 124.668 38.5534 124.004 38.9757C123.35 39.3856 122.592 39.5977 121.821 39.5864C121.187 39.6138 120.559 39.4444 120.025 39.1014C119.572 38.8139 119.216 38.398 119.001 37.9068C118.801 37.4446 118.697 36.9465 118.695 36.4428ZM120.231 36.4428C120.217 36.9245 120.388 37.3934 120.707 37.7541C120.863 37.9296 121.056 38.0681 121.272 38.1598C121.488 38.2514 121.721 38.2939 121.956 38.2841C122.394 38.2802 122.819 38.1353 123.168 37.8709C123.598 37.5367 123.93 37.093 124.129 36.5865C124.371 36.0684 124.499 35.5052 124.507 34.9338C124.535 34.4201 124.364 33.9151 124.031 33.5237C123.874 33.3558 123.683 33.2233 123.471 33.135C123.258 33.0467 123.03 33.0047 122.8 33.0117C122.425 33.0137 122.058 33.1133 121.733 33.3007C121.409 33.4881 121.139 33.7569 120.95 34.0805C120.482 34.7659 120.231 35.5767 120.231 36.4068V36.4428Z" fill="white"/>
</svg>
