<svg width="221" height="160" viewBox="0 0 221 160" fill="none" xmlns="http://www.w3.org/2000/svg">
<g clip-path="url(#clip0_833_6177)">
<path fill-rule="evenodd" clip-rule="evenodd" d="M76.1516 111.928C75.5117 111.471 74.815 111.092 74.0616 110.769L77.5954 106.092C78.248 106.749 78.9226 107.388 79.6193 108.004L66.8425 124.914C65.8306 124.824 64.7903 124.672 63.7248 124.448L67.9112 118.908C70.843 116.811 73.45 114.123 76.1516 111.928ZM128.129 39.2078L141.911 20.9658C142.393 20.909 142.876 20.8523 143.355 20.7985C144.149 20.7089 144.938 20.6193 145.726 20.5118L130.689 40.4114C129.853 39.9873 128.999 39.5841 128.129 39.2078ZM72.5169 110.214L76.4984 104.945C75.8585 104.253 75.2437 103.533 74.6511 102.801L69.5252 109.584C70.5782 109.73 71.5806 109.936 72.5169 110.214ZM123.895 37.6249C124.822 37.9206 125.733 38.2461 126.631 38.5956L139.723 21.2704C138.355 21.4914 136.956 21.7931 135.502 22.2649L123.895 37.6249ZM67.7094 109.386L73.6549 101.52C73.0749 100.74 72.52 99.9429 71.9936 99.1246L64.3427 109.252C65.5059 109.261 66.6313 109.3 67.7094 109.386ZM119.362 36.4363C120.352 36.6423 121.329 36.8813 122.29 37.1501L132.693 23.3789C130.739 24.3078 128.684 25.6069 126.499 27.4735C126.439 27.381 126.385 27.2914 126.338 27.2018L119.362 36.4363ZM62.3692 109.267L71.1172 97.691C70.6034 96.8159 70.121 95.9229 69.6734 95.009L58.8102 109.386C60.0207 109.333 61.2091 109.288 62.3692 109.267ZM114.495 35.6866C115.557 35.7942 116.607 35.9315 117.647 36.1107L125.799 25.3202C125.764 23.8389 126.619 22.4143 127.798 20.8374C129.538 18.5168 131.984 15.8737 133.359 12.2539C132.813 12.5854 132.211 12.8662 131.559 13.1051L114.495 35.6866ZM56.7737 109.482L68.9263 93.3993C68.4912 92.4077 68.0972 91.3983 67.7441 90.3739L53.1768 109.652C54.3873 109.601 55.5884 109.542 56.7737 109.482ZM109.236 35.4626C109.441 35.4597 109.646 35.4537 109.851 35.4537C110.79 35.4537 111.72 35.4865 112.647 35.5403L129.059 13.8189C127.81 14.1026 126.449 14.3356 125.002 14.5954L109.236 35.4626ZM51.1592 109.724L67.1641 88.5431C66.8299 87.4052 66.5494 86.2464 66.3192 85.0727L47.6537 109.775C47.701 109.775 47.7452 109.775 47.7924 109.775C48.9116 109.781 50.037 109.76 51.1592 109.724ZM103.48 35.8927L118.463 16.0588C119.009 15.8976 119.551 15.7512 120.087 15.6168C120.982 15.3928 121.859 15.2017 122.713 15.0285L107.222 35.5313C105.958 35.603 104.709 35.7225 103.48 35.8927ZM45.715 109.745C44.599 109.712 43.4894 109.652 42.3923 109.551L55.4528 92.2644C56.3481 92.36 57.2907 92.6168 58.3058 93.0797L45.715 109.745ZM40.5797 109.351C39.5426 109.213 38.5212 109.037 37.5155 108.816L48.5585 94.2027C50.2198 93.3097 51.7834 92.5601 53.4573 92.3122L40.5797 109.351ZM35.8637 108.401L45.2642 95.9558C45.1034 96.0364 44.9395 96.1171 44.7756 96.1947C43.4547 96.8279 42.0172 97.4073 40.3937 97.8105L33.1085 107.46C34.0037 107.824 34.9243 108.135 35.8637 108.401ZM31.6426 106.803L38.1145 98.2376C37.0112 98.3749 35.8258 98.4287 34.546 98.369L29.2247 105.408C30.0033 105.931 30.8103 106.394 31.6426 106.803ZM27.9574 104.491C27.2418 103.93 26.5577 103.306 25.902 102.622L29.6502 97.6582C30.7221 97.909 31.7372 98.0942 32.7018 98.2107L27.9574 104.491ZM24.8428 101.424L28.0141 97.2281C27.1252 96.9712 26.2015 96.6696 25.2369 96.3142L23.1594 99.0648C23.6859 99.916 24.2501 100.698 24.8428 101.424ZM22.3114 97.5895C21.8417 96.6995 21.4035 95.7497 21 94.7313L21.1135 94.582C22.0119 95.0001 22.8788 95.3824 23.7174 95.7258L22.3114 97.5895ZM58.413 92.9394C58 92.0523 57.4073 91.3027 56.6665 90.6576L65.6005 78.8337C65.6509 80.2225 65.7707 81.5933 65.9599 82.9492L58.413 92.9394ZM97.0144 37.2606L110.185 19.8279C112.077 18.5915 113.971 17.6656 115.828 16.9518L101.242 36.2571C99.8074 36.5259 98.3983 36.8604 97.0144 37.2606ZM55.4024 89.7348C54.6395 89.2629 53.782 88.8597 52.8647 88.5013L66.086 70.9999C65.8054 72.7202 65.6383 74.4733 65.5847 76.2533L55.4024 89.7348ZM89.3162 40.2561C90.9617 39.4348 92.6672 38.7091 94.4231 38.0878L104.914 24.2032C104.268 24.8722 103.625 25.589 102.988 26.3595C102.257 25.6995 101.721 25.0245 101.346 24.3346L89.3162 40.2561ZM51.3168 87.9518C50.3995 87.6561 49.4412 87.3903 48.4639 87.1394L54.4882 79.1653C54.9831 79.5147 55.478 79.9179 55.9698 80.3748C56.036 79.5505 55.9005 78.6456 55.6199 77.669L71.0132 57.2975C69.1911 60.4424 67.782 63.8292 66.8551 67.3922L51.3168 87.9518ZM77.1604 49.1591C79.7517 46.4712 82.7055 44.0998 85.9462 42.1227L100.728 22.5606C100.384 20.6223 101.005 18.5765 101.891 16.4292L77.1604 49.1591ZM46.8152 86.7213C46.2982 86.5929 45.7812 86.4645 45.2674 86.336C44.8103 86.2196 44.3531 86.1031 43.9024 85.9836L50.4594 77.3046C51.3515 77.5196 52.2468 77.8512 53.1516 78.335L46.8152 86.7213ZM42.2852 85.5267C41.33 85.24 40.4095 84.9234 39.5457 84.562L45.1192 77.1881C46.2856 77.0089 47.4867 76.9223 48.713 77.0239L42.2852 85.5267ZM38.0987 83.8811L42.799 77.66C41.2827 78.0244 39.8483 78.4545 38.5369 78.7083L35.8321 82.2892C36.4847 82.9015 37.2476 83.4241 38.0987 83.8811ZM34.7887 81.0707C34.1992 80.2076 33.802 79.1981 33.6381 78.0005L33.6538 77.9796C34.4419 78.6516 35.3656 78.9144 36.4027 78.9323L34.7887 81.0707ZM54.9894 75.9069L104.328 10.6083C104.977 8.7447 105.394 6.82433 105.214 4.84423L53.6496 73.0846C54.1603 74.0702 54.6174 75.0139 54.9894 75.9069ZM52.8363 71.5644L75.6252 41.4059C75.1807 40.3815 75.0546 39.0555 75.0798 37.5383L51.3767 68.9093C51.878 69.8202 52.3698 70.7073 52.8363 71.5644ZM50.5508 67.4041L75.2406 34.7309C75.3761 33.1032 75.559 31.3591 75.6441 29.606L61.7041 48.0541C61.6946 49.1591 61.7388 50.282 61.8491 51.4199C61.0673 51.193 60.3517 50.957 59.696 50.7091L49.1291 64.6953C49.5925 65.6151 50.0716 66.5201 50.5508 67.4041ZM48.3599 63.1124L58.2112 50.076C57.2686 49.628 56.4837 49.1471 55.8343 48.6335L47.0989 60.1915C47.1809 60.4006 47.2628 60.6066 47.3479 60.8127C47.6663 61.5922 48.0068 62.3568 48.3599 63.1124ZM46.459 58.4414L54.6868 47.5493C53.9806 46.734 53.5204 45.85 53.2209 44.8972L45.5259 55.0815C45.7717 56.2194 46.087 57.3393 46.459 58.4414ZM45.1665 52.961C44.9836 51.4976 44.9363 50.0133 45.0624 48.508L52.7165 38.3746C52.6945 39.9813 52.6661 41.4716 52.8142 42.8365L45.1665 52.961ZM45.6551 45.1272C46.4558 42.1406 48.0289 39.1003 50.6769 36.045C51.2759 35.3521 52.5179 33.7693 53.2682 32.8524C52.7859 33.8469 52.7228 34.7847 52.7228 35.7732L45.6551 45.1272ZM61.8365 45.2765C62.013 43.2725 62.344 41.3343 62.7633 39.4587L75.1775 23.0295C75.4928 24.2869 75.6346 25.6129 75.6756 26.9628L61.8365 45.2765ZM63.7815 35.5134C64.3395 33.5691 64.9416 31.7055 65.4964 29.9315C65.7266 29.1998 65.9472 28.483 66.1553 27.7782L73.0213 18.69C73.6833 19.4635 74.1908 20.3147 74.5754 21.2226L63.7815 35.5134ZM67.1546 23.8598C67.5108 22.0708 67.6559 20.4073 67.4478 18.8782L69.5568 16.0887C70.4584 16.5218 71.2339 17.0235 71.899 17.579L67.1546 23.8598ZM66.9623 16.9279C66.6818 16.1992 66.2877 15.5063 65.7676 14.8523C66.5966 15.0255 67.3595 15.2345 68.0594 15.4765L66.9623 16.9279ZM80.1205 35.4537L104.801 2.79245C104.511 1.87258 104.069 0.940772 103.442 0L81.7882 28.6562C81.5643 29.5343 81.3594 30.4064 81.1608 31.2665C80.8235 32.712 80.4988 34.1217 80.1205 35.4537ZM83.1248 24.2898C83.957 22.0798 85.0698 19.9354 86.6996 18.0091C89.3887 14.8284 91.9768 11.9911 94.3127 9.48538L83.1248 24.2898ZM147.983 20.1266L132.091 41.158C132.905 41.609 133.705 42.0839 134.484 42.5797L152.667 18.5168C151.091 19.3112 149.537 19.795 147.983 20.1266ZM82.9987 110.718C82.2484 110.175 81.5202 109.61 80.8078 109.025L68.7277 125.012C69.9697 125.036 71.1708 124.97 72.3277 124.839L82.9987 110.718ZM156.705 15.7691C157.276 15.2704 157.853 14.7208 158.439 14.1086C156.775 21.0703 152.317 24.3645 148.692 26.6851C148.541 26.7807 148.389 26.8792 148.241 26.9718L156.705 15.7691ZM143.718 32.9569L135.792 43.4488C136.555 43.9744 137.299 44.5179 138.024 45.0854L147.869 32.055C146.466 32.3148 145.13 32.7478 143.938 33.4138C143.853 33.2556 143.781 33.1032 143.718 32.9569ZM86.6334 113.096C85.8327 112.624 85.0478 112.134 84.2817 111.617L74.5439 124.505C76.0539 124.221 77.4851 123.841 78.8312 123.42L86.6334 113.096ZM150.035 31.7862L139.238 46.0769C139.947 46.6743 140.638 47.2925 141.306 47.9316L153.506 31.7862C153.395 31.7802 153.285 31.7712 153.175 31.7682C152.134 31.7145 151.078 31.7115 150.035 31.7862ZM90.5267 115.133L86.2615 120.777C84.8334 121.252 83.2351 121.888 81.4698 122.527L88.0111 113.869C88.8338 114.317 89.6724 114.738 90.5267 115.133ZM155.344 31.9474L142.425 49.0456C143.081 49.7206 143.711 50.4164 144.32 51.1302L154.53 37.616C153.673 37.5652 152.882 37.5234 152.169 37.4965C151.583 36.2899 152.708 35.4537 154.568 34.7817C155.359 34.495 156.283 34.2411 157.263 33.9962L158.455 32.4193C157.494 32.2401 156.444 32.0729 155.344 31.9474ZM94.6879 116.811C93.7768 116.495 92.8815 116.151 91.9989 115.781L88.714 120.126C89.9529 119.914 91.0185 119.977 91.9106 120.488L94.6879 116.811ZM160.173 32.7449C161.053 32.9031 162.156 33.0913 162.654 33.1809C162.055 33.1839 160.359 33.3093 159.644 33.4437L160.173 32.7449ZM156.4 37.7384L145.341 52.3756C145.937 53.1312 146.507 53.9107 147.05 54.7052L159.685 37.9803C158.531 37.8907 157.431 37.8071 156.4 37.7384ZM99.1423 118.107C98.1713 117.877 97.2098 117.614 96.2641 117.325L75.3572 144.995C76.738 144.834 78.0841 144.58 79.3923 144.246L99.1423 118.107ZM161.541 38.1207C162.601 38.2013 163.698 38.285 164.826 38.3686L149.461 58.7012C148.992 57.8142 148.49 56.9481 147.961 56.0969L161.541 38.1207ZM103.918 118.973L87.0401 141.31C85.3977 142.152 83.6922 142.89 81.9237 143.493L100.829 118.475C101.847 118.675 102.878 118.839 103.918 118.973ZM166.686 38.5C167.77 38.5776 168.874 38.6493 169.99 38.718L151.501 63.1871C151.119 62.1925 150.703 61.2129 150.246 60.2572L166.686 38.5ZM109.072 119.344C107.95 119.326 106.837 119.266 105.737 119.167L90.5204 139.309C93.4994 137.404 96.1569 135.229 98.6316 133.166L109.072 119.344ZM171.869 38.8315L161.349 52.7549C162.556 52.8326 163.675 52.8804 164.706 52.9013L175.213 38.9958C174.094 38.948 172.978 38.8942 171.869 38.8315ZM177.121 39.0674L166.667 52.9043C168.048 52.8804 169.255 52.7997 170.311 52.6713L180.531 39.1451C179.406 39.1331 178.265 39.1063 177.121 39.0674ZM182.486 39.1541C182.508 39.1541 182.53 39.1541 182.552 39.1541C183.665 39.1511 184.734 39.2407 185.765 39.4049L181.417 45.1571C181.127 45.2347 180.837 45.3184 180.55 45.4079C178.454 46.065 178.731 48.2661 176.925 50.1148C176.08 50.9779 174.778 51.7664 172.562 52.286L182.486 39.1541ZM187.473 39.7424L183.756 44.6643C185.005 44.4642 186.263 44.3507 187.505 44.2969L190.295 40.6055C189.387 40.274 188.45 39.9784 187.473 39.7424ZM191.798 41.2058C192.69 41.5881 193.542 41.9973 194.358 42.4094L192.902 44.3387C192.126 44.3029 191.316 44.273 190.484 44.2581C190.159 44.2521 189.828 44.2492 189.497 44.2521L191.798 41.2058ZM195.767 43.1471C196.64 43.613 197.463 44.061 198.239 44.4642L198.169 44.5568C197.233 44.5687 196.082 44.509 194.787 44.4403L195.767 43.1471ZM161.188 52.964C162.002 53.4598 162.812 53.9197 163.609 54.3498L153.071 68.3001C152.803 67.1682 152.491 66.0512 152.131 64.9521L161.188 52.964ZM114.687 119.102C113.483 119.227 112.269 119.308 111.039 119.338L103.679 129.08C105.718 127.557 107.688 126.344 109.687 125.717L114.687 119.102ZM165.018 55.0875L153.493 70.3369C153.726 71.6241 153.897 72.9323 154.001 74.2553L167.547 56.3269C166.727 55.9356 165.879 55.5265 165.018 55.0875ZM120.935 118.018L112.171 129.615C112.814 128.262 113.599 126.939 114.548 125.478C113.678 125.278 112.824 125.215 111.982 125.275L116.856 118.824C118.24 118.612 119.601 118.343 120.935 118.018ZM168.997 57.0078L154.117 76.7013C154.121 76.9373 154.127 77.1702 154.127 77.4062C154.127 78.8099 154.051 80.1986 153.906 81.5694L165.92 65.6689C165.652 65.5465 165.378 65.4359 165.094 65.3404C165.665 64.9999 166.245 64.7072 166.837 64.4534L171.547 58.2204C171.188 58.0442 170.816 57.865 170.434 57.6828C169.971 57.4618 169.492 57.2378 168.997 57.0078ZM128.227 115.554L109.908 139.796C110.018 137.669 110.236 135.898 110.573 134.324L123.416 117.331C125.065 116.823 126.672 116.232 128.227 115.554ZM172.969 58.9401L169.501 63.5305C169.993 63.3931 170.485 63.2707 170.98 63.1572C171.888 62.9481 172.795 62.7659 173.691 62.5778L175.339 60.3976C174.652 59.8929 173.855 59.415 172.969 58.9401ZM167.307 66.4335L153.44 84.786C152.951 87.3783 152.207 89.8901 151.236 92.2943L169.485 68.1418C168.767 67.4997 168.051 66.9203 167.307 66.4335ZM138.131 109.637C136.016 111.307 133.734 112.791 131.313 114.069L117.083 132.9C117.502 132.541 117.924 132.204 118.347 131.878C120.248 130.421 122.139 129.304 123.898 128.471L138.131 109.637ZM170.633 69.2199C170.831 69.4141 171.033 69.6112 171.238 69.8113C171.689 70.2563 172.146 70.7162 172.619 71.1821L124.567 134.778C125.484 132.476 126.354 130.036 126.694 127.369L170.633 69.2199ZM173.751 72.2782C174.403 72.8964 175.094 73.5147 175.828 74.1209L121.824 145.596C121.581 143.771 121.919 141.958 122.517 140.091L173.751 72.2782ZM177.064 75.0826C177.47 75.3813 177.893 75.6739 178.331 75.9577C178.681 76.1817 179.028 76.4027 179.375 76.6207L170.349 88.564C169.422 88.2833 168.511 87.9607 167.622 87.5814L177.064 75.0826ZM180.717 77.439L171.979 89.006C172.972 89.2479 173.978 89.448 174.99 89.6153L183.132 78.8397C182.335 78.3887 181.531 77.9228 180.717 77.439ZM184.51 79.6073L176.755 89.8692C177.83 90.0065 178.905 90.1111 179.974 90.2007L186.953 80.9632C186.159 80.5182 185.342 80.0702 184.51 79.6073ZM188.334 81.7337C189.163 82.2056 189.964 82.6745 190.733 83.1523L185.156 90.5322C184.072 90.4694 182.962 90.4097 181.837 90.338L188.334 81.7337ZM192.054 84.0005L187.035 90.6427C188.164 90.7173 189.257 90.801 190.301 90.9144L194.282 85.6461C193.709 85.1713 193.1 84.7173 192.46 84.2753C192.322 84.1827 192.189 84.0931 192.054 84.0005ZM195.455 86.6884C196.145 87.3545 196.77 88.0563 197.318 88.8149L195.048 91.8224C194.141 91.5357 193.147 91.3206 192.085 91.1534L195.455 86.6884ZM198.207 90.2305L196.562 92.4077C197.939 93.0588 199.043 93.9578 199.777 95.2211C199.534 93.3097 198.995 91.673 198.207 90.2305ZM167.093 88.2833C167.591 89.2539 168.057 90.1529 168.486 91.0279L165.788 94.5999C164.918 94.2325 163.994 93.9249 162.991 93.7099L167.093 88.2833ZM169.236 92.6347L167.231 95.2868C168.473 95.9409 169.627 96.6935 170.781 97.4521C170.419 95.6542 169.892 94.134 169.236 92.6347ZM162.515 94.3371L149.597 111.432C150.555 111.617 151.45 111.97 152.292 112.46L163.635 97.4491C163.294 96.3321 162.922 95.2868 162.515 94.3371ZM164.164 99.3456L153.588 113.344C154.297 113.899 154.968 114.544 155.612 115.255L164.981 102.855C164.728 101.645 164.457 100.466 164.164 99.3456ZM165.39 104.913L156.652 116.48C157.241 117.217 157.809 118 158.367 118.803L166.059 108.625C165.844 107.373 165.624 106.131 165.39 104.913ZM166.415 110.745L159.294 120.168C159.839 120.983 160.378 121.811 160.914 122.617L167.042 114.505C166.831 113.269 166.623 112.009 166.415 110.745ZM167.408 116.617L161.841 123.985C162.405 124.797 162.973 125.577 163.559 126.299L168.114 120.27C167.868 119.108 167.635 117.883 167.408 116.617ZM168.571 122.268L164.612 127.509C165.277 128.22 165.97 128.841 166.699 129.337L169.542 125.574C169.189 124.588 168.868 123.474 168.571 122.268ZM170.236 127.252L168.079 130.104C169.621 130.764 171.339 130.86 173.325 130.119C172.067 130.009 171.068 128.957 170.236 127.252ZM149.326 111.797L143.207 119.893C144.055 120.335 144.736 120.971 145.291 121.727L149.969 115.539C149.84 114.407 149.631 113.17 149.326 111.797ZM150.13 117.919L146.148 123.187C146.618 124.182 146.952 125.281 147.201 126.383L149.263 123.653C149.48 123.023 149.669 122.357 149.817 121.625C150.032 120.547 150.152 119.335 150.13 117.919ZM142.472 120.864L122.253 147.624C122.533 148.759 122.861 149.846 123.265 150.876L142.255 125.741C142.472 123.967 142.539 122.327 142.472 120.864ZM141.709 129.062L124.002 152.498C124.406 153.271 124.875 154.003 125.427 154.693C125.493 154.776 125.56 154.857 125.629 154.938L139.541 136.528C140.379 134.28 141.028 132.096 141.501 130.03C141.577 129.701 141.646 129.379 141.709 129.062ZM136.744 142.824L126.726 156.082C127.372 156.673 128.11 157.225 128.948 157.73L134.847 149.923C135.014 147.495 135.553 145.1 136.587 143.126C136.64 143.027 136.691 142.926 136.744 142.824ZM134.802 152.581C134.853 155.314 135.004 157.261 134.73 160C133.05 159.582 131.6 159.071 130.348 158.474L134.802 152.581ZM73.264 145.166L91.2675 121.339C87.6422 123.104 84.638 126.21 81.6148 129.522L69.8184 145.133C70.9911 145.21 72.1386 145.219 73.264 145.166ZM67.9932 144.957C66.9907 144.831 65.9693 144.652 64.929 144.419L67.1861 141.432C69.5126 140.533 71.5712 139.231 73.4689 137.708L67.9932 144.957ZM63.2803 144.004C62.3629 143.75 61.4298 143.454 60.4872 143.111L60.7741 142.729C62.136 142.681 63.4158 142.505 64.6264 142.221L63.2803 144.004ZM62.0635 124.051L64.3679 121.001C62.2684 121.963 59.9639 122.501 57.3443 122.324C58.9678 123.068 60.5408 123.632 62.0635 124.051Z" fill="#CECECE"/>
<path fill-rule="evenodd" clip-rule="evenodd" d="M138.036 80.6467C135.956 81.244 134.799 81.3456 134.045 81.3456C129.19 81.3456 128.437 78.3441 128.437 76.6597C128.437 74.0434 130.606 72.1021 133.9 72.1021C135.461 72.1021 136.848 72.4127 137.976 72.801V68.0135L137.513 67.9359C136.589 67.7806 134.884 67.4431 132.57 67.4431C123.551 67.4431 120.285 72.1559 120.285 76.815C120.285 82.2774 124.534 86.1898 132.365 86.1898C133.84 86.1898 135.691 86.0345 138.03 85.4611V80.6467H138.036ZM81.5605 67.7567V85.8792H99.4253V81.6054H89.3092V78.7831H98.7917V74.6407H89.3092V72.0275H99.2235V67.7567H81.5605ZM104.034 74.8498V78.5502H111.029C110.884 79.0161 110.046 81.477 105.913 81.477C105.566 81.477 103.602 81.477 101.2 80.6467V85.4641C102.789 85.8255 104.873 86.1928 107.01 86.1928C115.682 86.1928 119.093 81.3486 119.093 76.818C119.093 73.2699 117.098 67.4461 106.808 67.4461C105.651 67.4461 104.034 67.4968 101.635 67.9388L101.203 68.0165V72.804C103.139 72.0782 105.049 71.9767 105.743 71.9767C109.645 71.9767 110.686 73.918 111.033 74.8498H104.034Z" fill="#CECECE"/>
</g>
<defs>
<clipPath id="clip0_833_6177">
<rect width="220" height="160" fill="white" transform="translate(0.402344 -0.00012207)"/>
</clipPath>
</defs>
</svg>
