<svg width="221" height="161" viewBox="0 0 221 161" fill="none" xmlns="http://www.w3.org/2000/svg">
<g clip-path="url(#clip0_833_6174)">
<path d="M142.791 74.7313C142.37 74.9255 141.88 75.0742 141.316 75.1775C140.753 75.2808 140.137 75.3345 139.474 75.3345C138.29 75.3345 137.227 75.1651 136.295 74.8304C135.363 74.4916 134.569 74.0082 133.919 73.3719C133.268 72.7356 132.77 71.9754 132.423 71.0871C132.076 70.1988 131.902 69.1989 131.902 68.0833C131.902 66.8562 132.076 65.7696 132.423 64.8193C132.77 63.869 133.268 63.0716 133.919 62.4229C134.569 61.7742 135.354 61.2867 136.273 60.9561C137.193 60.6256 138.212 60.4603 139.339 60.4603C140.206 60.4603 140.913 60.5182 141.455 60.6339C141.997 60.7496 142.448 60.8776 142.813 61.014L142.444 62.646C141.967 62.4807 141.481 62.3651 140.991 62.2948C140.501 62.2246 140.016 62.1915 139.539 62.1915C137.73 62.1915 136.356 62.6749 135.41 63.6376C134.465 64.6003 133.988 66.0216 133.988 67.8933C133.988 68.7899 134.123 69.5914 134.391 70.3021C134.66 71.0127 135.038 71.6118 135.532 72.0994C136.022 72.5869 136.625 72.9588 137.331 73.2149C138.038 73.4711 138.84 73.595 139.738 73.595C140.215 73.595 140.696 73.5537 141.182 73.4711C141.668 73.3885 142.097 73.2562 142.474 73.0786L142.791 74.7313Z" fill="#CECECE"/>
<path d="M156.836 75.1252L152.89 68.9896L148.922 75.1252H146.537L151.676 67.6055L147.036 60.6642H149.421L152.933 66.3453L156.597 60.6642H158.852L154.191 67.5641L159.351 75.1252H156.836Z" fill="#CECECE"/>
<path d="M170.92 72.7278C170.477 72.0544 170.105 71.4718 169.801 70.9801C169.498 70.4926 169.246 70.0918 169.042 69.7819C168.838 69.4721 168.648 69.2324 168.465 69.0589C168.283 68.8854 168.088 68.7655 167.88 68.6953C167.672 68.6251 167.412 68.592 167.108 68.592H165.682V75.1201H163.73V60.6591H165.682V67.2285H166.961L172.316 60.6591H174.809L168.977 67.3112C169.398 67.3814 169.766 67.5756 170.083 67.902C170.399 68.2243 170.764 68.6994 171.167 69.3275C171.57 69.9555 172.073 70.7446 172.676 71.7032C173.274 72.6617 174.068 73.8021 175.052 75.1242H172.581C171.913 74.1987 171.362 73.4013 170.92 72.7278Z" fill="#CECECE"/>
<path d="M116.52 40.8041H115.48V120.695H116.52V40.8041Z" fill="#CECECE"/>
<path d="M133.464 102.212H131.903V90.6302H135.481C136.175 90.6302 136.799 90.7004 137.35 90.8368C137.9 90.9731 138.373 91.1921 138.763 91.4896C139.158 91.7871 139.457 92.1631 139.665 92.6135C139.873 93.068 139.977 93.6052 139.977 94.2333C139.977 95.4357 139.57 96.353 138.755 96.9893C137.939 97.6256 136.803 97.9396 135.342 97.9396H133.464V102.212ZM133.464 96.5513H135.342C136.313 96.5513 137.055 96.3653 137.558 95.9893C138.061 95.6133 138.312 95.039 138.312 94.2663C138.312 93.473 138.061 92.8986 137.558 92.5433C137.055 92.1921 136.318 92.0144 135.342 92.0144H133.464V96.5513Z" fill="#CECECE"/>
<path d="M148.78 102.377C147.935 102.377 147.172 102.241 146.495 101.964C145.819 101.687 145.238 101.294 144.756 100.782C144.275 100.27 143.907 99.6417 143.655 98.9021C143.399 98.1625 143.273 97.3361 143.273 96.4188C143.273 95.4932 143.408 94.6627 143.672 93.9272C143.937 93.1917 144.314 92.5719 144.791 92.0554C145.272 91.543 145.849 91.1464 146.521 90.8737C147.193 90.5968 147.926 90.4605 148.728 90.4605C149.63 90.4605 150.428 90.6051 151.118 90.8984C151.807 91.1918 152.384 91.6009 152.857 92.1215C153.325 92.6463 153.68 93.2743 153.923 94.0057C154.166 94.7412 154.288 95.5428 154.288 96.4146C154.288 97.398 154.149 98.2616 153.871 99.0054C153.594 99.7491 153.212 100.369 152.726 100.869C152.241 101.365 151.66 101.741 150.992 101.993C150.316 102.249 149.578 102.377 148.78 102.377ZM148.937 100.989C150.081 100.989 150.983 100.604 151.638 99.84C152.293 99.0715 152.618 97.9352 152.618 96.4229C152.618 95.6296 152.527 94.9436 152.349 94.3693C152.171 93.795 151.911 93.3198 151.577 92.9479C151.243 92.5719 150.832 92.2951 150.355 92.1215C149.873 91.9438 149.331 91.8571 148.733 91.8571C148.199 91.8571 147.701 91.9521 147.241 92.138C146.777 92.324 146.378 92.6091 146.044 92.981C145.71 93.357 145.442 93.8321 145.246 94.4065C145.051 94.9808 144.952 95.6543 144.952 96.4229C144.952 97.1832 145.047 97.8526 145.238 98.4269C145.429 99.0012 145.697 99.4764 146.044 99.8566C146.391 100.237 146.812 100.522 147.302 100.708C147.787 100.894 148.334 100.989 148.937 100.989Z" fill="#CECECE"/>
<path d="M166.65 101.898C166.317 102.055 165.922 102.17 165.471 102.253C165.02 102.336 164.526 102.377 163.997 102.377C163.047 102.377 162.201 102.241 161.451 101.972C160.705 101.703 160.072 101.315 159.548 100.807C159.027 100.299 158.628 99.6912 158.351 98.9764C158.073 98.2657 157.935 97.4641 157.935 96.5674C157.935 95.584 158.073 94.7122 158.351 93.9519C158.628 93.1916 159.027 92.5512 159.548 92.0305C160.068 91.5099 160.697 91.1215 161.43 90.8571C162.167 90.5926 162.982 90.4604 163.888 90.4604C164.582 90.4604 165.146 90.5058 165.579 90.6009C166.013 90.6959 166.377 90.7951 166.663 90.9066L166.369 92.2123C165.987 92.0801 165.597 91.9851 165.206 91.9314C164.812 91.8776 164.426 91.8487 164.044 91.8487C162.596 91.8487 161.495 92.233 160.736 93.0057C159.977 93.7784 159.6 94.9146 159.6 96.4145C159.6 97.1335 159.708 97.774 159.921 98.3442C160.133 98.9103 160.437 99.3937 160.831 99.7821C161.226 100.175 161.707 100.472 162.271 100.675C162.839 100.877 163.481 100.98 164.2 100.98C164.582 100.98 164.968 100.947 165.354 100.881C165.74 100.815 166.087 100.712 166.386 100.567L166.65 101.898Z" fill="#CECECE"/>
<path d="M177.572 99.1172H172.382L171.202 102.212H169.624L174.26 90.6302H175.821L180.369 102.212H178.739L177.572 99.1172ZM172.885 97.762H177.069L175.036 92.3202H174.966L172.885 97.762Z" fill="#CECECE"/>
<path d="M186.745 102.212H185.184V92.0185H181.589V90.6302H190.339V92.0185H186.745V102.212Z" fill="#CECECE"/>
<path d="M198.447 102.377C197.601 102.377 196.838 102.241 196.162 101.964C195.485 101.687 194.904 101.294 194.423 100.782C193.942 100.27 193.573 99.6416 193.322 98.902C193.066 98.1624 192.94 97.336 192.94 96.4187C192.94 95.4931 193.074 94.6626 193.339 93.9271C193.603 93.1916 193.981 92.5718 194.458 92.0553C194.939 91.543 195.516 91.1463 196.188 90.8736C196.86 90.5967 197.593 90.4604 198.395 90.4604C199.297 90.4604 200.095 90.605 200.784 90.8984C201.474 91.1917 202.05 91.6008 202.523 92.1214C202.991 92.6462 203.347 93.2743 203.59 94.0056C203.833 94.7411 203.954 95.5427 203.954 96.4145C203.954 97.398 203.815 98.2615 203.538 99.0053C203.26 99.7491 202.879 100.369 202.393 100.869C201.907 101.365 201.326 101.741 200.654 101.993C199.982 102.249 199.245 102.377 198.447 102.377ZM198.603 100.989C199.748 100.989 200.65 100.604 201.305 99.84C201.959 99.0714 202.285 97.9351 202.285 96.4228C202.285 95.6295 202.193 94.9436 202.016 94.3692C201.838 93.7949 201.578 93.3197 201.244 92.9478C200.91 92.5718 200.498 92.295 200.021 92.1214C199.54 91.9438 198.998 91.857 198.399 91.857C197.866 91.857 197.367 91.952 196.908 92.138C196.444 92.3239 196.045 92.609 195.711 92.9809C195.377 93.3569 195.108 93.8321 194.913 94.4064C194.718 94.9808 194.618 95.6543 194.618 96.4228C194.618 97.1831 194.713 97.8525 194.904 98.4268C195.095 99.0012 195.364 99.4763 195.711 99.8565C196.058 100.237 196.478 100.522 196.968 100.708C197.454 100.894 198 100.989 198.603 100.989Z" fill="#CECECE"/>
<path d="M220 102.212H218.439L217.693 93.1589L214.619 102.212H212.988L209.931 93.192L209.168 102.212H207.603L208.643 90.6302H210.551L213.834 100.592L217.047 90.6302H218.955L220 102.212Z" fill="#CECECE"/>
<path d="M58.2145 87.4736C54.3292 91.5723 47.7078 91.8822 43.4192 88.1719C39.1306 84.4616 38.7967 78.1277 42.6777 74.0291C46.563 69.9304 53.1888 69.6247 57.4774 73.3308C61.7616 77.0452 62.0955 83.375 58.2145 87.4736Z" fill="url(#paint0_radial_833_6174)"/>
<path d="M53.1702 46.5068C54.0504 47.3291 54.8613 48.1719 55.5985 49.0107C59.8133 53.8241 61.7863 58.5508 61.7863 58.5508C64.4748 59.0259 66.9899 59.1581 69.3314 59.0466C69.4832 59.0383 69.622 59.0383 69.7781 59.03C69.9168 59.0177 70.0469 59.0011 70.1857 58.9929C75.3719 58.5466 82.1104 56.6543 88.2679 50.7708C88.4804 50.5683 88.6928 50.3535 88.901 50.1427C87.947 49.0602 86.967 47.9901 85.9003 46.9696C68.0089 29.9718 40.0877 28.4926 20.4314 42.495C35.8512 35.3719 46.5357 40.2886 53.1702 46.5068Z" fill="url(#paint1_linear_833_6174)"/>
<path d="M17.6485 95.0621C17.9563 93.9259 18.3162 92.8351 18.7108 91.8063C20.9787 85.9228 24.2916 81.9316 24.2916 81.9316C23.381 79.4732 22.2406 77.333 20.97 75.4572C20.8876 75.3374 20.8183 75.2175 20.7315 75.0977C20.6535 74.9903 20.5711 74.887 20.493 74.7796C17.4923 70.7222 12.4016 66.1113 3.98055 63.971C3.69002 63.8967 3.39082 63.8306 3.09162 63.7644C2.57994 65.0907 2.10295 66.4377 1.70402 67.8259C-4.79171 91.0874 7.82248 114.874 30.3754 124.087C16.1915 114.923 15.3155 103.648 17.6485 95.0621Z" fill="url(#paint2_linear_833_6174)"/>
<path d="M79.6668 100.153C78.4786 100.467 77.3079 100.714 76.1761 100.904C69.6934 101.975 64.4118 101.239 64.4118 101.239C62.634 103.218 61.2594 105.23 60.1883 107.218C60.1233 107.346 60.0495 107.466 59.9845 107.598C59.9238 107.718 59.8761 107.833 59.8154 107.953C57.6256 112.457 55.9821 118.964 58.25 126.988C58.328 127.261 58.4191 127.546 58.5058 127.827C59.9671 127.583 61.4285 127.306 62.8898 126.934C87.2813 120.666 102.593 98.3635 99.6873 75.1433C98.4428 91.4263 88.6385 97.785 79.6668 100.153Z" fill="url(#paint3_linear_833_6174)"/>
<path d="M20.4314 42.495C20.4314 42.495 9.54353 48.9893 3.85436 62.0331C5.34603 62.281 20.5316 65.198 26.1904 81.2786C27.5737 80.4357 31.8232 77.2419 34.6765 68.4331C38.1282 57.7857 44.6803 49.9272 53.175 46.5062C53.1707 46.5062 42.4119 31.893 20.4314 42.495Z" fill="url(#paint4_linear_833_6174)"/>
<path d="M54.9274 119.168C54.9231 113.768 56.4971 106.624 62.7891 99.8935L62.8584 99.7902C61.8308 98.7448 58.236 96.1667 48.9867 98.1747C37.5824 100.654 25.0029 100.364 17.6442 95.0635C17.6442 95.0635 9.74358 111.252 30.3712 124.089C30.3712 124.089 41.7062 129.815 56.3844 128.001C56.1242 127.307 54.9318 123.907 54.9274 119.168Z" fill="url(#paint5_linear_833_6174)"/>
<path d="M90.2208 51.7001C88.5991 53.5759 80.8892 61.2733 68.0235 61.2816C65.9508 61.2816 63.7523 61.0832 61.4281 60.6246L61.3197 60.5998C60.8947 62.0831 60.5435 66.2851 66.8267 72.7347C74.7751 80.9072 80.8068 91.4348 79.6707 100.153C79.6707 100.153 98.334 98.5785 99.6869 75.1393C99.6826 75.1393 99.2186 62.9095 90.2208 51.7001Z" fill="url(#paint6_linear_833_6174)"/>
</g>
<defs>
<radialGradient id="paint0_radial_833_6174" cx="0" cy="0" r="1" gradientUnits="userSpaceOnUse" gradientTransform="translate(74.8317 54.1042) rotate(0.0238062) scale(154.813 67.0901)">
<stop stop-color="#CECECE"/>
<stop offset="1" stop-color="#707070"/>
</radialGradient>
<linearGradient id="paint1_linear_833_6174" x1="50.2037" y1="44.7146" x2="194.915" y2="98.4672" gradientUnits="userSpaceOnUse">
<stop stop-color="#CECECE"/>
<stop offset="1" stop-color="#707070"/>
</linearGradient>
<linearGradient id="paint2_linear_833_6174" x1="121.998" y1="112.946" x2="119.868" y2="40.6867" gradientUnits="userSpaceOnUse">
<stop stop-color="#CECECE"/>
<stop offset="1" stop-color="#707070"/>
</linearGradient>
<linearGradient id="paint3_linear_833_6174" x1="207.415" y1="62.0258" x2="159.218" y2="174.317" gradientUnits="userSpaceOnUse">
<stop stop-color="#CECECE"/>
<stop offset="1" stop-color="#707070"/>
</linearGradient>
<linearGradient id="paint4_linear_833_6174" x1="64.9503" y1="99.4895" x2="91.1559" y2="15.3072" gradientUnits="userSpaceOnUse">
<stop stop-color="#CECECE"/>
<stop offset="1" stop-color="#707070"/>
</linearGradient>
<linearGradient id="paint5_linear_833_6174" x1="187.311" y1="74.939" x2="23.1321" y2="103.83" gradientUnits="userSpaceOnUse">
<stop stop-color="#CECECE"/>
<stop offset="1" stop-color="#707070"/>
</linearGradient>
<linearGradient id="paint6_linear_833_6174" x1="78.8155" y1="60.6928" x2="85.4207" y2="95.6846" gradientUnits="userSpaceOnUse">
<stop stop-color="#CECECE"/>
<stop offset="1" stop-color="#707070"/>
</linearGradient>
<clipPath id="clip0_833_6174">
<rect width="220" height="160" fill="white" transform="translate(0.478516 0.841064)"/>
</clipPath>
</defs>
</svg>
