<svg width="1920" height="260" viewBox="0 0 1920 260" fill="none" xmlns="http://www.w3.org/2000/svg">
<g clip-path="url(#clip0_663_5794)">
<path d="M-35 277.593L27.0323 349.487L216.636 129.743L27.0323 -90L-35 -18.1068L92.571 129.743L-35 277.593Z" fill="white" fill-opacity="0.05"/>
<path d="M213.129 277.593L275.162 349.487L464.765 129.743L275.162 -90L213.129 -18.1068L340.7 129.743L213.129 277.593Z" fill="white" fill-opacity="0.05"/>
<path d="M461.258 277.593L523.291 349.487L712.894 129.743L523.291 -90L461.258 -18.1068L588.83 129.743L461.258 277.593Z" fill="white" fill-opacity="0.05"/>
<path d="M709.388 277.593L771.42 349.487L961.023 129.743L771.42 -90L709.388 -18.1068L836.959 129.743L709.388 277.593Z" fill="white" fill-opacity="0.05"/>
<path d="M1955.54 277.593L1893.51 349.487L1703.91 129.743L1893.51 -90L1955.54 -18.1068L1827.97 129.743L1955.54 277.593Z" fill="white" fill-opacity="0.05"/>
<path d="M1707.41 277.593L1645.38 349.487L1455.78 129.743L1645.38 -90L1707.41 -18.1068L1579.84 129.743L1707.41 277.593Z" fill="white" fill-opacity="0.05"/>
<path d="M1459.28 277.593L1397.25 349.487L1207.65 129.743L1397.25 -90L1459.28 -18.1068L1331.71 129.743L1459.28 277.593Z" fill="white" fill-opacity="0.05"/>
<path d="M1211.15 277.593L1149.12 349.487L959.518 129.743L1149.12 -90L1211.15 -18.1068L1083.58 129.743L1211.15 277.593Z" fill="white" fill-opacity="0.05"/>
</g>
<defs>
<clipPath id="clip0_663_5794">
<rect width="1920" height="260" fill="white"/>
</clipPath>
</defs>
</svg>
